<svg width="2379" height="600" viewBox="0 0 2379 600" fill="none" xmlns="http://www.w3.org/2000/svg">
<path d="M308.224 58C381.952 58 441.344 117.392 441.344 191.12V224.912C397.312 219.792 352.256 217.744 308.224 217.744C264.192 217.744 219.136 219.792 175.104 224.912V191.12C175.104 118.416 234.496 58 308.224 58ZM549.888 447.12L563.2 330.384C592.896 335.504 615.424 360.08 615.424 387.728C615.424 420.496 585.728 447.12 549.888 447.12ZM65.536 447.12C29.696 447.12 0 420.496 0 387.728C0 359.056 22.528 335.504 52.224 330.384L65.536 447.12ZM503.808 253.584C436.224 246.416 371.712 243.344 309.248 243.344C246.784 243.344 181.248 246.416 114.688 253.584C92.16 255.632 75.776 276.112 78.848 297.616L99.328 496.272C101.376 514.704 115.712 530.064 135.168 532.112C192.512 539.28 250.88 542.352 310.272 542.352C369.664 542.352 428.032 539.28 485.376 532.112C503.808 530.064 519.168 514.704 521.216 496.272L541.696 297.616C541.696 275.088 526.336 255.632 503.808 253.584ZM195.584 433.808C179.2 433.808 166.912 417.424 166.912 395.92C166.912 374.416 180.224 358.032 195.584 358.032C210.944 358.032 224.256 374.416 224.256 395.92C224.256 417.424 211.968 433.808 195.584 433.808ZM366.592 475.792C366.592 477.84 365.568 479.888 364.544 480.912C363.52 481.936 361.472 482.96 359.424 482.96H258.048C256 482.96 253.952 481.936 252.928 480.912C251.904 479.888 250.88 477.84 250.88 475.792V457.36C250.88 453.264 253.952 450.192 258.048 450.192H260.096C264.192 450.192 267.264 453.264 267.264 457.36V466.576H350.208V457.36C350.208 453.264 353.28 450.192 357.376 450.192H359.424C363.52 450.192 366.592 453.264 366.592 457.36V475.792ZM420.864 433.808C404.48 433.808 392.192 417.424 392.192 395.92C392.192 374.416 405.504 358.032 420.864 358.032C436.224 358.032 449.536 374.416 449.536 395.92C449.536 417.424 437.248 433.808 420.864 433.808Z" fill="#00D4A1"/>
<path d="M933.024 440L866.624 326H822.624V440H786.224V161.2H876.224C897.291 161.2 915.024 164.8 929.424 172C944.091 179.2 955.024 188.933 962.224 201.2C969.424 213.467 973.024 227.467 973.024 243.2C973.024 262.4 967.424 279.333 956.224 294C945.291 308.667 928.757 318.4 906.624 323.2L976.624 440H933.024ZM822.624 296.8H876.224C895.957 296.8 910.757 292 920.624 282.4C930.491 272.533 935.424 259.467 935.424 243.2C935.424 226.667 930.491 213.867 920.624 204.8C911.024 195.733 896.224 191.2 876.224 191.2H822.624V296.8ZM1015.98 329.6C1015.98 307.2 1020.52 287.6 1029.58 270.8C1038.65 253.733 1051.05 240.533 1066.78 231.2C1082.78 221.867 1100.52 217.2 1119.98 217.2C1139.18 217.2 1155.85 221.333 1169.98 229.6C1184.12 237.867 1194.65 248.267 1201.58 260.8V220.8H1238.38V440H1201.58V399.2C1194.38 412 1183.58 422.667 1169.18 431.2C1155.05 439.467 1138.52 443.6 1119.58 443.6C1100.12 443.6 1082.52 438.8 1066.78 429.2C1051.05 419.6 1038.65 406.133 1029.58 388.8C1020.52 371.467 1015.98 351.733 1015.98 329.6ZM1201.58 330C1201.58 313.467 1198.25 299.067 1191.58 286.8C1184.92 274.533 1175.85 265.2 1164.38 258.8C1153.18 252.133 1140.78 248.8 1127.18 248.8C1113.58 248.8 1101.18 252 1089.98 258.4C1078.78 264.8 1069.85 274.133 1063.18 286.4C1056.52 298.667 1053.18 313.067 1053.18 329.6C1053.18 346.4 1056.52 361.067 1063.18 373.6C1069.85 385.867 1078.78 395.333 1089.98 402C1101.18 408.4 1113.58 411.6 1127.18 411.6C1140.78 411.6 1153.18 408.4 1164.38 402C1175.85 395.333 1184.92 385.867 1191.58 373.6C1198.25 361.067 1201.58 346.533 1201.58 330ZM1406.7 216.8C1433.36 216.8 1454.96 224.933 1471.5 241.2C1488.03 257.2 1496.3 280.4 1496.3 310.8V440H1460.3V316C1460.3 294.133 1454.83 277.467 1443.9 266C1432.96 254.267 1418.03 248.4 1399.1 248.4C1379.9 248.4 1364.56 254.4 1353.1 266.4C1341.9 278.4 1336.3 295.867 1336.3 318.8V440H1299.9V220.8H1336.3V252C1343.5 240.8 1353.23 232.133 1365.5 226C1378.03 219.867 1391.76 216.8 1406.7 216.8ZM1678.16 440L1592.16 343.2V440H1555.76V144H1592.16V318L1676.56 220.8H1727.36L1624.16 330L1727.76 440H1678.16ZM1901.21 296.4C1911.35 298 1920.55 302.133 1928.81 308.8C1937.35 315.467 1944.01 323.733 1948.81 333.6C1953.88 343.467 1956.41 354 1956.41 365.2C1956.41 379.333 1952.81 392.133 1945.61 403.6C1938.41 414.8 1927.88 423.733 1914.01 430.4C1900.41 436.8 1884.28 440 1865.61 440H1761.61V161.2H1861.61C1880.55 161.2 1896.68 164.4 1910.01 170.8C1923.35 176.933 1933.35 185.333 1940.01 196C1946.68 206.667 1950.01 218.667 1950.01 232C1950.01 248.533 1945.48 262.267 1936.41 273.2C1927.61 283.867 1915.88 291.6 1901.21 296.4ZM1798.01 281.6H1859.21C1876.28 281.6 1889.48 277.6 1898.81 269.6C1908.15 261.6 1912.81 250.533 1912.81 236.4C1912.81 222.267 1908.15 211.2 1898.81 203.2C1889.48 195.2 1876.01 191.2 1858.41 191.2H1798.01V281.6ZM1862.41 410C1880.55 410 1894.68 405.733 1904.81 397.2C1914.95 388.667 1920.01 376.8 1920.01 361.6C1920.01 346.133 1914.68 334 1904.01 325.2C1893.35 316.133 1879.08 311.6 1861.21 311.6H1798.01V410H1862.41ZM2102.53 443.6C2081.99 443.6 2063.33 438.933 2046.53 429.6C2029.99 420.267 2016.93 407.067 2007.33 390C1997.99 372.667 1993.33 352.667 1993.33 330C1993.33 307.6 1998.13 287.867 2007.73 270.8C2017.59 253.467 2030.93 240.267 2047.73 231.2C2064.53 221.867 2083.33 217.2 2104.13 217.2C2124.93 217.2 2143.73 221.867 2160.53 231.2C2177.33 240.267 2190.53 253.333 2200.13 270.4C2209.99 287.467 2214.93 307.333 2214.93 330C2214.93 352.667 2209.86 372.667 2199.73 390C2189.86 407.067 2176.39 420.267 2159.33 429.6C2142.26 438.933 2123.33 443.6 2102.53 443.6ZM2102.53 411.6C2115.59 411.6 2127.86 408.533 2139.33 402.4C2150.79 396.267 2159.99 387.067 2166.93 374.8C2174.13 362.533 2177.73 347.6 2177.73 330C2177.73 312.4 2174.26 297.467 2167.33 285.2C2160.39 272.933 2151.33 263.867 2140.13 258C2128.93 251.867 2116.79 248.8 2103.73 248.8C2090.39 248.8 2078.13 251.867 2066.93 258C2055.99 263.867 2047.19 272.933 2040.53 285.2C2033.86 297.467 2030.53 312.4 2030.53 330C2030.53 347.867 2033.73 362.933 2040.13 375.2C2046.79 387.467 2055.59 396.667 2066.53 402.8C2077.46 408.667 2089.46 411.6 2102.53 411.6ZM2307.19 250.8V380C2307.19 390.667 2309.45 398.267 2313.99 402.8C2318.52 407.067 2326.39 409.2 2337.59 409.2H2364.39V440H2331.59C2311.32 440 2296.12 435.333 2285.99 426C2275.85 416.667 2270.79 401.333 2270.79 380V250.8H2242.39V220.8H2270.79V165.6H2307.19V220.8H2364.39V250.8H2307.19Z" fill="#00D4A1"/>
</svg>
